<svg xmlns="http://www.w3.org/2000/svg" viewBox="0 0 298.83 86.13"><defs><style>.cls-1{fill:#ec4f8c;}</style></defs><title>Ativo 1</title><g id="Camada_2" data-name="Camada 2"><g id="Camada_1-2" data-name="Camada 1"><path class="cls-1" d="M17,64.08H11.87L10.3,85.4H0L7.15.73H22.53L30.16,85.4H18.66Zm-4.36-9h3.63L14.66,33.56h-.37Z"/><path class="cls-1" d="M50.51,85.4l-8.36-47h-.24v47h-10V.73H45.18l7.51,45.55h.12V.73H63.72V85.4Z"/><path class="cls-1" d="M79.22,86.13a14.85,14.85,0,0,1-4.66-.73,10.9,10.9,0,0,1-4-2.3A11.66,11.66,0,0,1,67.71,79a14.61,14.61,0,0,1-1.09-5.87V13a14.61,14.61,0,0,1,1.09-5.87A11.66,11.66,0,0,1,70.56,3a10.9,10.9,0,0,1,4-2.3A14.8,14.8,0,0,1,79.22,0h2.42a15.09,15.09,0,0,1,4.61.73A11,11,0,0,1,90.31,3a11.51,11.51,0,0,1,2.84,4.06A14.44,14.44,0,0,1,94.24,13V73.17A14.44,14.44,0,0,1,93.15,79a11.51,11.51,0,0,1-2.84,4.06,11,11,0,0,1-4.06,2.3,15.09,15.09,0,0,1-4.61.73Zm1.09-76.07q-1.69,0-1.69,4.72V71.35A12.91,12.91,0,0,0,79,75a1.36,1.36,0,0,0,1.33,1.09h.24A1.37,1.37,0,0,0,81.89,75a12.91,12.91,0,0,0,.36-3.64V14.78q0-4.72-1.7-4.72Z"/><path class="cls-1" d="M115.8,85.4l-8.35-47h-.25v47h-10V.73h13.32L118,46.28h.13V.73H129V85.4Z"/><path class="cls-1" d="M143.91.73V85.4h-12V.73Z"/><path class="cls-1" d="M185.33.73V85.4H175.4v-47h-.24l-4.85,47h-8.6l-4.6-47h-.25v47H146.81V.73H162.2l3.63,38h.24L170,.73Z"/><path class="cls-1" d="M204,64.08H198.9L197.32,85.4H187L194.17.73h15.39l7.63,84.67H205.68Zm-4.36-9h3.63l-1.58-21.56h-.36Z"/><path class="cls-1" d="M241.9,10.78h-8.48V85.4h-12V10.78H213V.73h29v10Z"/><path class="cls-1" d="M271.46,10.78H263V85.4H251V10.78h-8.48V.73h28.95v10Z"/><path class="cls-1" d="M285.63,64.08h-5.09L279,85.4h-10.3L275.82.73H291.2l7.63,84.67H287.32Zm-4.36-9h3.63l-1.57-21.56H283Z"/></g></g></svg>